<svg width="16" height="17" viewBox="0 0 16 17" fill="none" xmlns="http://www.w3.org/2000/svg">
<g clip-path="url(#clip0)">
<path d="M3.75 8.5C3.75 7.70728 3.96841 6.96468 4.34784 6.32884V3.63171H1.65072C0.58025 5.02196 0 6.71631 0 8.5C0 10.2837 0.58025 11.978 1.65072 13.3683H4.34784V10.6712C3.96841 10.0353 3.75 9.29271 3.75 8.5Z" fill="#FBBD00"/>
<path d="M8 12.75L6.125 14.625L8 16.5C9.78372 16.5 11.478 15.9197 12.8683 14.8493V12.155H10.174C9.53262 12.5358 8.78691 12.75 8 12.75Z" fill="#0F9D58"/>
<path d="M4.34785 10.6711L1.65072 13.3683C1.86266 13.6435 2.09344 13.9071 2.34316 14.1569C3.85416 15.6678 5.86313 16.5 8 16.5V12.75C6.44925 12.75 5.0901 11.915 4.34785 10.6711Z" fill="#31AA52"/>
<path d="M16 8.50001C16 8.01329 15.9559 7.52566 15.869 7.05073L15.7987 6.66638H8V10.4164H11.7954C11.4268 11.1495 10.8601 11.7477 10.174 12.1551L12.8682 14.8493C13.1435 14.6374 13.4071 14.4066 13.6568 14.1569C15.1678 12.6459 16 10.6369 16 8.50001Z" fill="#3C79E6"/>
<path d="M11.0052 5.49478L11.3367 5.82622L13.9883 3.17459L13.6569 2.84316C12.1459 1.33216 10.1369 0.5 8 0.5L6.125 2.375L8 4.25C9.13519 4.25 10.2025 4.69206 11.0052 5.49478Z" fill="#CF2D48"/>
<path d="M8.00001 4.25V0.5C5.86313 0.5 3.85416 1.33216 2.34313 2.84313C2.09341 3.09284 1.86262 3.35644 1.65069 3.63172L4.34782 6.32884C5.0901 5.085 6.44926 4.25 8.00001 4.25Z" fill="#EB4132"/>
</g>
<defs>
<clipPath id="clip0">
<rect width="16" height="16" fill="white" transform="translate(0 0.5)"/>
</clipPath>
</defs>
</svg>
