<svg xmlns="http://www.w3.org/2000/svg" width="319" height="81" fill="none" viewBox="0 0 319 81">
  <path fill="#fff" d="M127.583 34.246l7.057-3.975 13.937 24.745 15.292-8.613 3.239 5.75-22.349 12.588-17.176-30.495zM37.503 44.8c2 .633 3.567 1.7 4.7 3.2 1.134 1.467 1.7 3.283 1.7 5.45 0 3.067-1.2 5.433-3.6 7.1-2.366 1.633-5.833 2.45-10.4 2.45h-18.1V28h17.1c4.267 0 7.534.817 9.8 2.45 2.3 1.633 3.45 3.85 3.45 6.65 0 1.7-.416 3.217-1.25 4.55-.8 1.333-1.933 2.383-3.4 3.15zm-17.65-10.7v8.25h8.05c2 0 3.517-.35 4.55-1.05 1.034-.7 1.55-1.733 1.55-3.1s-.516-2.383-1.55-3.05c-1.033-.7-2.55-1.05-4.55-1.05h-8.05zm9.45 22.8c2.134 0 3.734-.35 4.8-1.05 1.1-.7 1.65-1.783 1.65-3.25 0-2.9-2.15-4.35-6.45-4.35h-9.45v8.65h9.45zm20.183-20.8h7.8V63h-7.8V36.1zm3.9-3.75c-1.434 0-2.6-.417-3.5-1.25-.9-.833-1.35-1.867-1.35-3.1s.45-2.267 1.35-3.1c.9-.833 2.066-1.25 3.5-1.25 1.433 0 2.6.4 3.5 1.2.9.8 1.35 1.8 1.35 3 0 1.3-.45 2.383-1.35 3.25-.9.833-2.067 1.25-3.5 1.25zM73.575 63.4c-2.234 0-4.417-.267-6.55-.8-2.134-.567-3.834-1.267-5.1-2.1l2.6-5.6c1.2.767 2.65 1.4 4.35 1.9 1.7.467 3.367.7 5 .7 3.3 0 4.95-.817 4.95-2.45 0-.767-.45-1.317-1.35-1.65-.9-.333-2.283-.617-4.15-.85-2.2-.333-4.017-.717-5.45-1.15a8.63 8.63 0 01-3.75-2.3c-1.033-1.1-1.55-2.667-1.55-4.7 0-1.7.483-3.2 1.45-4.5 1-1.333 2.433-2.367 4.3-3.1 1.9-.733 4.133-1.1 6.7-1.1 1.9 0 3.783.217 5.65.65 1.9.4 3.466.967 4.7 1.7l-2.6 5.55c-2.367-1.333-4.95-2-7.75-2-1.667 0-2.917.233-3.75.7-.834.467-1.25 1.067-1.25 1.8 0 .833.45 1.417 1.35 1.75.9.333 2.333.65 4.3.95 2.2.367 4 .767 5.4 1.2 1.4.4 2.617 1.15 3.65 2.25s1.55 2.633 1.55 4.6c0 1.667-.5 3.15-1.5 4.45-1 1.3-2.467 2.317-4.4 3.05-1.9.7-4.167 1.05-6.8 1.05zm28.362-27.7c4.167 0 7.367 1 9.6 3 2.234 1.967 3.35 4.95 3.35 8.95V63h-7.3v-3.35c-1.466 2.5-4.2 3.75-8.2 3.75-2.066 0-3.866-.35-5.4-1.05-1.5-.7-2.65-1.667-3.45-2.9-.8-1.233-1.2-2.633-1.2-4.2 0-2.5.934-4.467 2.8-5.9 1.9-1.433 4.817-2.15 8.75-2.15h6.2c0-1.7-.516-3-1.55-3.9-1.033-.933-2.583-1.4-4.65-1.4-1.433 0-2.85.233-4.25.7-1.366.433-2.533 1.033-3.5 1.8l-2.8-5.45c1.467-1.033 3.217-1.833 5.25-2.4a23.903 23.903 0 016.35-.85zm-.6 22.45c1.334 0 2.517-.3 3.55-.9 1.034-.633 1.767-1.55 2.2-2.75v-2.75h-5.35c-3.2 0-4.8 1.05-4.8 3.15 0 1 .384 1.8 1.15 2.4.8.567 1.884.85 3.25.85z"/>
  <path fill="#fff" d="M166.551 36.1h7.8V63h-7.8V36.1zm3.9-3.75c-1.433 0-2.6-.417-3.5-1.25-.9-.833-1.35-1.867-1.35-3.1s.45-2.267 1.35-3.1c.9-.833 2.067-1.25 3.5-1.25 1.434 0 2.6.4 3.5 1.2.9.8 1.35 1.8 1.35 3 0 1.3-.45 2.383-1.35 3.25-.9.833-2.066 1.25-3.5 1.25zm27.489 3.35c3.334 0 6.017 1 8.05 3 2.067 2 3.1 4.967 3.1 8.9V63h-7.8V48.8c0-2.133-.466-3.717-1.4-4.75-.933-1.067-2.283-1.6-4.05-1.6-1.966 0-3.533.617-4.7 1.85-1.166 1.2-1.75 3-1.75 5.4V63h-7.8V36.1h7.45v3.15c1.034-1.133 2.317-2 3.85-2.6 1.534-.633 3.217-.95 5.05-.95zm46.264.4v22.4c0 4.933-1.284 8.6-3.85 11-2.567 2.4-6.317 3.6-11.25 3.6-2.6 0-5.067-.317-7.4-.95-2.334-.633-4.267-1.55-5.8-2.75l3.1-5.6c1.133.933 2.566 1.667 4.3 2.2 1.733.567 3.466.85 5.2.85 2.7 0 4.683-.617 5.95-1.85 1.3-1.2 1.95-3.033 1.95-5.5v-1.15c-2.034 2.233-4.867 3.35-8.5 3.35-2.467 0-4.734-.533-6.8-1.6a12.609 12.609 0 01-4.85-4.6c-1.2-1.967-1.8-4.233-1.8-6.8s.6-4.833 1.8-6.8a12.245 12.245 0 014.85-4.55c2.066-1.1 4.333-1.65 6.8-1.65 3.9 0 6.866 1.283 8.9 3.85V36.1h7.4zm-14.75 19.2c2.066 0 3.75-.6 5.05-1.8 1.333-1.233 2-2.833 2-4.8 0-1.967-.667-3.55-2-4.75-1.3-1.233-2.984-1.85-5.05-1.85-2.067 0-3.767.617-5.1 1.85-1.334 1.2-2 2.783-2 4.75s.666 3.567 2 4.8c1.333 1.2 3.033 1.8 5.1 1.8zm49.109-19.2V63h-7.4v-3.2a10.606 10.606 0 01-3.7 2.7c-1.433.6-2.983.9-4.65.9-3.533 0-6.333-1.017-8.4-3.05-2.066-2.033-3.1-5.05-3.1-9.05V36.1h7.8v14.05c0 4.333 1.817 6.5 5.45 6.5 1.867 0 3.367-.6 4.5-1.8 1.134-1.233 1.7-3.05 1.7-5.45V36.1h7.8zm18.076-.4c4.167 0 7.367 1 9.6 3 2.234 1.967 3.35 4.95 3.35 8.95V63h-7.3v-3.35c-1.466 2.5-4.2 3.75-8.2 3.75-2.066 0-3.866-.35-5.4-1.05-1.5-.7-2.65-1.667-3.45-2.9-.8-1.233-1.2-2.633-1.2-4.2 0-2.5.934-4.467 2.8-5.9 1.9-1.433 4.817-2.15 8.75-2.15h6.2c0-1.7-.516-3-1.55-3.9-1.033-.933-2.583-1.4-4.65-1.4-1.433 0-2.85.233-4.25.7-1.366.433-2.533 1.033-3.5 1.8l-2.8-5.45c1.467-1.033 3.217-1.833 5.25-2.4a23.91 23.91 0 016.35-.85zm-.6 22.45c1.334 0 2.517-.3 3.55-.9 1.034-.633 1.767-1.55 2.2-2.75v-2.75h-5.35c-3.2 0-4.8 1.05-4.8 3.15 0 1 .384 1.8 1.15 2.4.8.567 1.884.85 3.25.85zM256.5 30a1.502 1.502 0 01-1.5-1.5V24h-6a2.998 2.998 0 01-3-3V3a2.999 2.999 0 013-3h24a2.998 2.998 0 013 3v18a2.999 2.999 0 01-3 3h-9.15l-5.55 5.565c-.3.285-.675.435-1.05.435h-.75zm1.5-9v4.62l4.62-4.62H273V3h-24v18h9zm-6-13.5h18v3h-18v-3zm0 6h13.5v3H252v-3z"/>
</svg>
